<svg id="visual" viewBox="0 0 960 540" width="960" height="540" xmlns="http://www.w3.org/2000/svg" xmlns:xlink="http://www.w3.org/1999/xlink" version="1.1"><path d="M0 39L192 17L384 60L576 60L768 71L960 39L960 0L768 0L576 0L384 0L192 0L0 0Z" fill="#0389ff"></path><path d="M0 109L192 50L384 109L576 125L768 114L960 66L960 37L768 69L576 58L384 58L192 15L0 37Z" fill="#0083fd"></path><path d="M0 141L192 212L384 174L576 228L768 147L960 158L960 64L768 112L576 123L384 107L192 48L0 107Z" fill="#007dfb"></path><path d="M0 249L192 266L384 384L576 374L768 271L960 325L960 156L768 145L576 226L384 172L192 210L0 139Z" fill="#0077f8"></path><path d="M0 471L192 465L384 438L576 449L768 487L960 374L960 323L768 269L576 372L384 382L192 264L0 247Z" fill="#0071f6"></path><path d="M0 514L192 525L384 503L576 465L768 503L960 465L960 372L768 485L576 447L384 436L192 463L0 469Z" fill="#016af3"></path><path d="M0 541L192 541L384 541L576 541L768 541L960 541L960 463L768 501L576 463L384 501L192 523L0 512Z" fill="#0764f0"></path></svg>